<svg width="81" height="81" viewBox="0 0 81 81" fill="none" xmlns="http://www.w3.org/2000/svg">
<rect x="0.820312" y="0.36377" width="80" height="80" rx="10" fill="#F9F9F9"/>
<g clip-path="url(#clip0_105_169)">
<path d="M30.0124 30.2461L26.2004 30.5406C25.1397 30.6226 24.195 31.1785 23.6084 32.0658L19.2121 38.7149C18.7672 39.3878 18.6965 40.2299 19.0228 40.9676C19.3492 41.7052 20.0199 42.2193 20.817 42.3428L24.3073 42.8834C25.1238 38.5504 27.0784 34.2281 30.0124 30.2461ZM38.3004 56.8764L38.8411 60.3668C38.9645 61.1638 39.4786 61.8346 40.2162 62.1609C40.5169 62.2944 40.8422 62.3634 41.1711 62.3637C41.6329 62.3633 42.0843 62.227 42.469 61.9716L49.1182 57.5754C50.0055 56.9887 50.5615 56.0439 50.6433 54.9833L50.9378 51.1714C46.9556 54.1055 42.6334 56.0601 38.3004 56.8764ZM36.9877 54.4572C37.1089 54.4572 37.2308 54.4473 37.3524 54.427C39.1677 54.1235 40.9174 53.6121 42.5864 52.9429L28.241 38.5974C27.5717 40.2664 27.0604 42.0161 26.7569 43.8315C26.6372 44.5471 26.8773 45.2761 27.3902 45.7891L35.3947 53.7936C35.8206 54.2195 36.3955 54.4572 36.9877 54.4572ZM59.3116 37.8717C62.8221 31.0849 62.9521 23.913 62.7686 20.5494C62.7058 19.3969 61.787 18.4781 60.6344 18.4153C59.9922 18.3806 59.3492 18.3634 58.706 18.3638C54.9449 18.3638 48.9937 18.9334 43.3121 21.8722C38.7968 24.2077 32.876 29.3503 29.3828 36.1085C29.4241 36.1408 29.4644 36.175 29.5024 36.2129L44.971 51.6816C45.009 51.7196 45.0431 51.7598 45.0753 51.801C51.8336 48.3078 56.9761 42.387 59.3116 37.8717ZM44.4033 27.6656C46.9162 25.1527 51.0051 25.1524 53.5182 27.6656C54.7356 28.8829 55.406 30.5015 55.406 32.2231C55.406 33.9446 54.7356 35.5633 53.5182 36.7806C52.2619 38.0369 50.611 38.6651 48.9608 38.6653C47.31 38.6654 45.66 38.0372 44.4033 36.7806C43.1859 35.5633 42.5155 33.9446 42.5155 32.2231C42.5155 30.5015 43.1859 28.8829 44.4033 27.6656Z" fill="#F48120"/>
<path d="M46.2265 34.9576C47.7342 36.4653 50.1877 36.4654 51.6955 34.9576C52.4258 34.2271 52.8281 33.256 52.8281 32.2231C52.8281 31.1901 52.4258 30.219 51.6955 29.4886C50.9416 28.7347 49.9513 28.3578 48.961 28.3578C47.9707 28.3578 46.9804 28.7347 46.2265 29.4886C45.4962 30.219 45.0938 31.1901 45.0938 32.2231C45.0938 33.256 45.4961 34.2272 46.2265 34.9576ZM20.1355 54.6239C20.4654 54.6239 20.7953 54.4981 21.047 54.2463L25.2555 50.0377C25.759 49.5343 25.759 48.7181 25.2555 48.2147C24.7522 47.7113 23.936 47.7113 23.4326 48.2147L19.224 52.4233C18.7206 52.9267 18.7206 53.7428 19.224 54.2463C19.3436 54.3661 19.4856 54.4612 19.6421 54.526C19.7985 54.5908 19.9662 54.6241 20.1355 54.6239ZM29.1125 52.0716C28.6091 51.5682 27.7929 51.5682 27.2895 52.0716L19.1981 60.163C18.6947 60.6664 18.6947 61.4826 19.1981 61.986C19.4498 62.2377 19.7797 62.3635 20.1097 62.3635C20.4396 62.3635 20.7695 62.2377 21.0211 61.9859L29.1124 53.8946C29.6159 53.3912 29.6159 52.575 29.1125 52.0716ZM31.1463 55.9286L26.9378 60.1371C26.4344 60.6406 26.4344 61.4567 26.9378 61.9601C27.1896 62.2118 27.5195 62.3377 27.8493 62.3377C28.1791 62.3377 28.5091 62.2119 28.7607 61.9601L32.9693 57.7515C33.4727 57.2481 33.4727 56.432 32.9693 55.9286C32.466 55.4251 31.6498 55.4251 31.1463 55.9286Z" fill="#F48120"/>
</g>
<defs>
<clipPath id="clip0_105_169">
<rect width="44" height="44" fill="white" transform="translate(18.8203 18.3638)"/>
</clipPath>
</defs>
</svg>
