<svg version="1.2" xmlns="http://www.w3.org/2000/svg" viewBox="0 0 32 31" width="32" height="31">
	<title>arrow-left-slide-svg</title>
	<style>
		.s0 { fill: #ffffff } 
	</style>
	<path id="Icon_awesome-arrow-left" class="s0" d="m18.1 28.7l-1.6 1.5q-0.2 0.3-0.5 0.4-0.3 0.1-0.6 0.1-0.4 0-0.7-0.1-0.3-0.1-0.5-0.4l-13.7-13.6q-0.2-0.3-0.4-0.6-0.1-0.3-0.1-0.6 0-0.4 0.1-0.7 0.2-0.3 0.4-0.5l13.7-13.7q0.2-0.2 0.5-0.4 0.3-0.1 0.7-0.1 0.3 0 0.6 0.1 0.3 0.2 0.5 0.4l1.6 1.6q0.2 0.2 0.4 0.5 0.1 0.3 0.1 0.7 0 0.3-0.1 0.6-0.2 0.3-0.4 0.6l-8.5 8h20.2q0.4 0 0.7 0.2 0.3 0.1 0.5 0.3 0.2 0.3 0.4 0.6 0.1 0.3 0.1 0.6v2.3q0 0.3-0.1 0.6-0.2 0.3-0.4 0.6-0.2 0.2-0.5 0.3-0.3 0.2-0.7 0.2h-20.2l8.5 8q0.2 0.3 0.4 0.6 0.1 0.3 0.1 0.6 0 0.4-0.1 0.7-0.1 0.3-0.4 0.6z"/>
</svg>