<svg width="81" height="81" viewBox="0 0 81 81" fill="none" xmlns="http://www.w3.org/2000/svg">
<rect x="0.820312" y="0.36377" width="80" height="80" rx="10" fill="#F9F9F9"/>
<path fill-rule="evenodd" clip-rule="evenodd" d="M35.2316 46.0288C34.9102 46.0396 34.5858 46.1303 34.2698 46.3005L26.3053 50.5892C26.2822 50.6016 26.2648 50.6224 26.2566 50.6472C26.2484 50.6721 26.2501 50.6991 26.2613 50.7228L29.8693 58.369C29.8808 58.3934 29.9014 58.4122 29.9267 58.4214C29.952 58.4306 29.9799 58.4295 30.0043 58.4183C33.931 56.6154 35.2191 56.9321 37.0409 57.3799C38.3365 57.6984 39.9412 58.0928 43.433 57.5953C45.6352 57.2816 50.7456 54.0228 54.9755 50.6623C56.8102 49.2047 58.4664 47.7346 59.6368 46.4821C60.6009 45.4504 61.2119 44.6421 61.2593 44.2362C61.2762 44.0915 60.9045 43.9069 60.7831 43.8719C60.5465 43.8037 60.2208 43.7924 59.869 43.7968C57.7589 43.8135 44.4389 53.7668 42.0518 53.177L41.8304 53.1082L37.3539 51.4798C37.2924 51.4575 35.526 51.7365 35.3073 51.7686C35.1072 51.7963 34.9042 51.7437 34.7426 51.6224C34.581 51.501 34.4739 51.3208 34.4447 51.1208C34.4154 50.9209 34.4664 50.7175 34.5865 50.5549C34.7065 50.3924 34.886 50.2839 35.0857 50.2531L37.2962 49.9278L37.2963 49.9289C37.4213 49.9105 37.5489 49.9235 37.6676 49.9668L42.4273 51.6925C42.9359 51.8101 43.4504 51.3089 43.579 50.7943C43.6644 50.4524 43.7086 50.1959 43.5442 49.8554C43.4323 49.6231 43.2392 49.4291 42.9847 49.3134L36.2149 46.2362C35.8866 46.0869 35.555 46.0179 35.2316 46.0288ZM40.4005 25.7464C40.3937 25.7347 40.3893 25.7218 40.3875 25.7084C40.3858 25.695 40.3867 25.6814 40.3903 25.6683C40.3938 25.6553 40.4 25.6431 40.4083 25.6324C40.4166 25.6218 40.427 25.6129 40.4388 25.6063C41.1339 25.2143 42.1657 24.7648 42.9037 24.5996C43.1777 24.5395 43.4012 24.3697 43.4944 24.083L44.2323 21.8118C44.2388 21.7912 44.2517 21.7732 44.2692 21.7605C44.2868 21.7478 44.3079 21.741 44.3295 21.7412H46.7375C46.7825 21.7412 46.8208 21.7691 46.8348 21.8118L47.5727 24.083L47.5744 24.0825C47.6142 24.205 47.6843 24.3154 47.7783 24.4035C47.8723 24.4915 47.9871 24.5544 48.1119 24.5862C48.9444 24.7991 50.0227 25.2249 50.7524 25.6779C50.9813 25.8205 51.2616 25.8535 51.5217 25.721L53.6516 24.6358C53.6708 24.6257 53.6927 24.6221 53.714 24.6255C53.7354 24.6289 53.7551 24.6391 53.7703 24.6546L55.4716 26.3559C55.4871 26.3711 55.4973 26.3908 55.5007 26.4122C55.504 26.4336 55.5005 26.4554 55.4905 26.4746L54.4052 28.6047L54.4059 28.605C54.3474 28.7198 54.3189 28.8475 54.323 28.9762C54.327 29.105 54.3636 29.2306 54.4292 29.3415C54.9133 30.1601 55.2823 31.0415 55.5259 31.9609C55.5985 32.2359 55.7362 32.4537 56.0429 32.5535L58.3144 33.2914C58.335 33.2979 58.3531 33.3109 58.3658 33.3284C58.3785 33.3459 58.3852 33.367 58.385 33.3887V35.7968C58.3852 35.8184 58.3784 35.8396 58.3657 35.8571C58.353 35.8746 58.335 35.8875 58.3144 35.894L56.0432 36.6319L56.0438 36.6337C55.9213 36.6735 55.8108 36.7436 55.7227 36.8376C55.6347 36.9316 55.5718 37.0463 55.5401 37.1711C55.3271 38.0035 54.9013 39.082 54.4483 39.8118C54.3058 40.0407 54.2728 40.3209 54.4052 40.581L55.4905 42.711C55.5005 42.7301 55.5041 42.752 55.5007 42.7734C55.4973 42.7948 55.4871 42.8145 55.4716 42.8297L53.7703 44.531C53.7551 44.5465 53.7354 44.5567 53.714 44.5601C53.6927 44.5634 53.6708 44.5599 53.6516 44.5498L51.5215 43.4646L51.5212 43.4652C51.4064 43.4068 51.2787 43.3783 51.15 43.3823C51.0213 43.3864 50.8956 43.423 50.7848 43.4886C49.9661 43.9726 49.0846 44.3417 48.1652 44.5853C47.8902 44.6579 47.6724 44.7957 47.5728 45.1023L46.8348 47.3738C46.8283 47.3944 46.8153 47.4124 46.7978 47.4251C46.7803 47.4378 46.7592 47.4446 46.7375 47.4444H44.3295C44.3079 47.4446 44.2868 47.4378 44.2693 47.4251C44.2518 47.4124 44.2388 47.3944 44.2323 47.3738L43.4944 45.1026L43.4926 45.1031C43.4529 44.9806 43.3827 44.8702 43.2887 44.7821C43.1948 44.694 43.08 44.6312 42.9552 44.5994C42.1228 44.3865 41.0444 43.9607 40.3146 43.5077C40.0857 43.3651 39.8056 43.3322 39.5454 43.4646L37.4154 44.5498C37.3962 44.5598 37.3743 44.5634 37.3529 44.56C37.3315 44.5566 37.3118 44.5465 37.2967 44.531L35.5953 42.8297C35.5798 42.8145 35.5697 42.7948 35.5663 42.7734C35.5629 42.752 35.5665 42.7301 35.5765 42.711L36.6619 40.5809L36.6612 40.5806C36.7197 40.4658 36.7482 40.3381 36.7441 40.2094C36.74 40.0806 36.7035 39.955 36.6379 39.8441C36.4977 39.6074 36.3671 39.3651 36.2463 39.1179C36.2386 39.1023 36.2351 39.0851 36.236 39.0677C36.2369 39.0504 36.2421 39.0336 36.2513 39.0189C36.2605 39.0041 36.2733 38.992 36.2885 38.9836C36.3037 38.9752 36.3208 38.9708 36.3381 38.9709H39.1885C39.2227 38.9709 39.252 38.9863 39.2717 39.0142C42.0026 42.8735 47.5761 43.3903 50.9535 40.0129C53.947 37.0193 53.947 32.1663 50.9535 29.1727C48.5194 26.7387 44.7558 26.2254 41.7698 27.9157C41.7464 27.929 41.7187 27.9325 41.6927 27.9254C41.6667 27.9183 41.6445 27.9013 41.631 27.878L40.4005 25.7464ZM32.2328 34.1593C32.2328 33.2951 32.9335 32.5944 33.7978 32.5944C34.6622 32.5944 35.3628 33.2951 35.3628 34.1593C35.3628 35.0237 34.6621 35.7243 33.7978 35.7243C32.9335 35.7243 32.2328 35.0237 32.2328 34.1593ZM33.7868 30.5847C34.2728 30.5847 34.6612 30.2945 34.7188 29.8812L35.5416 23.984C35.6016 23.5541 35.4624 23.1637 35.1334 22.8396C34.7132 22.4254 34.2806 22.3475 33.7144 22.3475C32.7596 22.3475 31.9253 23.0624 32.0539 23.984L32.8767 29.8812C32.9331 30.2849 33.3208 30.5847 33.7868 30.5847ZM40.7436 29.3945L34.6813 18.8941C34.576 18.7142 34.4671 18.583 34.2954 18.4839L34.2962 18.4826C33.862 18.2338 33.2321 18.3439 32.9396 18.8504L23.0664 35.9543C22.6919 36.6024 23.1389 37.4372 23.9246 37.4372H43.671C44.4615 37.4372 44.9035 36.5997 44.5292 35.9514L40.7436 29.3945ZM29.0485 60.2147C29.2227 60.589 29.0507 61.0417 28.6821 61.2143L26.3416 62.3023C25.9617 62.4788 25.5096 62.3115 25.3303 61.9316L20.4489 51.5871C20.2747 51.2154 20.4456 50.7605 20.8154 50.5874L23.156 49.4994C23.5358 49.3228 23.9879 49.4903 24.1672 49.8701L29.0485 60.2147Z" fill="#F48120"/>
</svg>
