<svg xmlns="http://www.w3.org/2000/svg" width="44.866" height="44.866" viewBox="0 0 44.866 44.866">
  <g id="noun-question-228752" transform="translate(-3.322 -68)">
    <path id="Path_2624" data-name="Path 2624" d="M112.766,90.433a22.433,22.433,0,1,0-22.433,22.433c.128,0,.257-.007.385-.007v.007h21.94l-6.518-6.518A22.346,22.346,0,0,0,112.766,90.433ZM92.24,103.55a3.4,3.4,0,0,1-4.395,0,2.914,2.914,0,0,1,.02-4.1,3.327,3.327,0,0,1,4.354,0,2.914,2.914,0,0,1,.02,4.1Zm5.815-16.686A12.466,12.466,0,0,1,95.566,90l-1.514,1.44a5.18,5.18,0,0,0-1.629,3.2l-.074,1.143H87.561A11.261,11.261,0,0,1,88.2,91.61a8.69,8.69,0,0,1,2.326-3.063,11.912,11.912,0,0,0,2.251-2.454,3.873,3.873,0,0,0,.561-1.995q0-3.164-2.921-3.164a2.954,2.954,0,0,0-2.218.852,3.362,3.362,0,0,0-.872,2.353H81.9a7.217,7.217,0,0,1,2.312-5.6,9.007,9.007,0,0,1,6.2-2.022,9.027,9.027,0,0,1,6.153,1.92,6.828,6.828,0,0,1,2.191,5.422A6.512,6.512,0,0,1,98.054,86.863Z" transform="translate(-64.578)" fill="#c1c1c1"/>
  </g>
</svg>
