<?xml version="1.0" encoding="UTF-8"?>
<svg id="Layer_2" data-name="Layer 2" xmlns="http://www.w3.org/2000/svg" xmlns:xlink="http://www.w3.org/1999/xlink" viewBox="0 0 103 103">
  <defs>
    <style>
      .cls-1 {
        clip-path: url(#clippath-2);
      }

      .cls-2 {
        fill: none;
      }

      .cls-2, .cls-3 {
        stroke-width: 0px;
      }

      .cls-3 {
        fill: #fff;
      }

      .cls-4 {
        clip-path: url(#clippath-3);
      }
    </style>
    <clipPath id="clippath-2">
      <rect class="cls-2" x="35.75" y="26.49" width="31.93" height="8.24"/>
    </clipPath>
    <clipPath id="clippath-3">
      <rect class="cls-2" x="35.75" y="53.74" width="31.93" height="8.24"/>
    </clipPath>
  </defs>
  <g id="Layer_1-2" data-name="Layer 1">
    <g>
      <path class="cls-3" d="M51.5,0C23.06,0,0,23.06,0,51.5s23.06,51.5,51.5,51.5,51.5-23.06,51.5-51.5S79.94,0,51.5,0ZM51.5,101.31C23.99,101.31,1.69,79.01,1.69,51.5S23.99,1.69,51.5,1.69s49.81,22.3,49.81,49.81-22.3,49.81-49.81,49.81Z"/>
      <path class="cls-3" d="M51.5,16.38c-19.39,0-35.12,15.72-35.12,35.12s15.72,35.12,35.12,35.12,35.12-15.72,35.12-35.12-15.72-35.12-35.12-35.12ZM51.5,84.49c-18.22,0-32.99-14.77-32.99-32.99s14.77-32.99,32.99-32.99,32.99,14.77,32.99,32.99-14.77,32.99-32.99,32.99Z"/>
      <g>
        <path class="cls-3" d="M28.64,17.47l.66.92c.79,1.11.69,2.14-.38,2.9-1.07.76-2.08.53-2.87-.58l-2.57-3.61c-.79-1.11-.69-2.14.38-2.9,1.07-.76,2.08-.53,2.87.58l.48.67-1.03.73-.53-.74c-.35-.5-.71-.53-1.05-.28-.35.25-.43.59-.08,1.09l2.67,3.74c.35.5.7.52,1.04.27.35-.25.44-.58.08-1.08l-.71-.99,1.03-.73Z"/>
        <path class="cls-3" d="M31.84,13.69l1.65-.8.53,1.1-1.65.8,1.09,2.24,2.08-1.01.53,1.1-3.29,1.59-3.71-7.67,3.29-1.59.53,1.1-2.08,1.01,1.03,2.14Z"/>
        <path class="cls-3" d="M41.24,15.39c-.13-.19-.21-.31-.41-.97l-.37-1.29c-.22-.76-.56-.97-1.14-.8l-.44.13.96,3.33-1.29.37-2.35-8.19,1.94-.56c1.33-.38,2.08.07,2.45,1.34l.18.64c.24.84.13,1.47-.37,1.9.72.08,1.11.64,1.35,1.5l.36,1.26c.11.4.21.69.43.95l-1.31.38ZM37.82,8.78l.72,2.51.5-.14c.48-.14.71-.43.52-1.09l-.23-.81c-.17-.58-.44-.78-.9-.65l-.62.18Z"/>
        <path class="cls-3" d="M43.76,6.14l4.11-.45.13,1.21-1.39.15.8,7.26-1.33.15-.8-7.26-1.39.15-.13-1.21Z"/>
        <path class="cls-3" d="M51.59,5.63l1.34.04-.23,8.51-1.34-.04.23-8.51Z"/>
        <path class="cls-3" d="M57.73,9.94l1.7.28-.2,1.2-1.7-.28-.57,3.47-1.32-.22,1.38-8.4,3.49.57-.2,1.2-2.17-.36-.42,2.53Z"/>
        <path class="cls-3" d="M64.19,7.52l1.28.4-2.52,8.14-1.28-.4,2.52-8.14Z"/>
        <path class="cls-3" d="M69.02,13.16l1.66.79-.52,1.1-1.66-.79-1.07,2.25,2.09.99-.52,1.1-3.3-1.56,3.64-7.7,3.3,1.56-.52,1.1-2.09-.99-1.01,2.15Z"/>
        <path class="cls-3" d="M76.2,12.97l1.73,1.22c1.09.77,1.2,1.76.42,2.87l-2.48,3.52c-.78,1.11-1.75,1.34-2.84.57l-1.73-1.22,4.9-6.97ZM76.6,14.74l-3.5,4.98.62.43c.35.25.68.21,1.03-.28l2.55-3.62c.35-.5.27-.82-.08-1.07l-.62-.43Z"/>
      </g>
      <g>
        <path class="cls-3" d="M29.64,89.49l-.6.96c-.72,1.16-1.71,1.45-2.83.76-1.11-.7-1.28-1.72-.56-2.87l2.35-3.75c.72-1.16,1.71-1.45,2.83-.76,1.11.7,1.28,1.72.56,2.87l-.44.7-1.07-.67.48-.77c.32-.52.22-.85-.14-1.08-.36-.23-.71-.17-1.03.34l-2.44,3.9c-.32.52-.21.84.15,1.07.36.23.7.18,1.03-.33l.65-1.03,1.07.67Z"/>
        <path class="cls-3" d="M33.96,88.01c.51-1.26,1.47-1.71,2.69-1.22s1.59,1.49,1.07,2.75l-1.67,4.1c-.51,1.26-1.47,1.71-2.69,1.22s-1.59-1.49-1.07-2.75l1.67-4.1ZM33.5,92.7c-.23.56-.07.88.33,1.04.39.16.73.05.96-.52l1.73-4.26c.23-.56.07-.88-.33-1.04-.39-.16-.73-.05-.96.52l-1.73,4.26Z"/>
        <path class="cls-3" d="M42.6,94.93l2.04-5.76,1.83.35-1.61,8.36-1.24-.24,1.16-6-2.06,5.82-1.24-.24.16-6.1-1.14,5.91-1.15-.22,1.61-8.36,1.83.35-.18,6.12Z"/>
        <path class="cls-3" d="M53.12,91.75l.02,1.11c.02,1.36-.62,2.12-1.96,2.14h-.63s.05,3.21.05,3.21l-1.34.02-.14-8.52,1.97-.03c1.34-.02,2.01.71,2.03,2.07ZM50.48,90.91l.05,2.88h.63c.43-.02.65-.22.64-.82l-.02-1.28c0-.61-.24-.8-.67-.79h-.63Z"/>
        <path class="cls-3" d="M61.15,97.15l-1.33.23-.49-1.48-1.62.27.03,1.56-1.21.21-.08-8.62,1.93-.33,2.77,8.17ZM57.69,95l1.27-.22-1.36-4.14.08,4.35Z"/>
        <path class="cls-3" d="M63.98,89.92l2.11,5.8-1.13.41-2.91-8,1.58-.57,3.03,4.32-1.74-4.79,1.12-.41,2.91,8-1.29.47-3.67-5.23Z"/>
        <path class="cls-3" d="M72.48,89.77l-4.33-4.07,1.21-.7,2.84,2.84-1.07-3.87,1.1-.64,1.41,5.77,1.42,2.44-1.16.67-1.42-2.44Z"/>
      </g>
      <g>
        <path class="cls-3" d="M33.66,72.59v-.14h1.12v.22c0,.54.24.74.61.74.42,0,.66-.2.66-.92v-1.44h-.02c-.2.43-.55.66-1.07.66-.87,0-1.31-.61-1.31-1.72v-1.34c0-1.2.63-1.89,1.79-1.89s1.79.69,1.79,1.89v3.89c0,1.27-.58,1.96-1.81,1.96-1.16,0-1.76-.69-1.76-1.89ZM36.05,69.88v-1.33c0-.49-.2-.73-.61-.73s-.61.24-.61.73v1.33c0,.5.2.74.61.74s.61-.24.61-.74Z"/>
        <path class="cls-3" d="M37.97,72.59v-3.95c0-1.2.63-1.89,1.79-1.89s1.79.69,1.79,1.89v3.95c0,1.2-.63,1.89-1.79,1.89s-1.79-.69-1.79-1.89ZM40.38,72.66v-4.11c0-.54-.24-.74-.61-.74s-.61.2-.61.74v4.11c0,.54.24.74.61.74s.61-.2.61-.74Z"/>
        <path class="cls-3" d="M42.27,72.59v-3.95c0-1.2.63-1.89,1.79-1.89s1.79.69,1.79,1.89v3.95c0,1.2-.63,1.89-1.79,1.89s-1.79-.69-1.79-1.89ZM44.68,72.66v-4.11c0-.54-.24-.74-.61-.74s-.61.2-.61.74v4.11c0,.54.24.74.61.74s.61-.2.61-.74Z"/>
        <path class="cls-3" d="M48.31,68.63h-1.24v-.84c1,0,1.35-.21,1.62-.95h.8v7.52h-1.18v-5.74Z"/>
        <path class="cls-3" d="M50.95,69.14h1.14v1.14h-1.14v-1.14ZM50.95,73.23h1.14v1.14h-1.14v-1.14Z"/>
        <path class="cls-3" d="M52.95,73.56c0-1.07.3-1.73,1.18-2.65.9-.96,1.16-1.53,1.16-2.22s-.24-.86-.61-.86-.61.2-.61.74v.81h-1.12v-.73c0-1.2.6-1.89,1.76-1.89s1.76.69,1.76,1.89c0,.89-.37,1.69-1.46,2.85-.71.75-.89,1.13-.89,1.65v.16h2.25v1.07h-3.42v-.82Z"/>
        <path class="cls-3" d="M57.19,72.59v-3.95c0-1.2.63-1.89,1.79-1.89s1.79.69,1.79,1.89v3.95c0,1.2-.63,1.89-1.79,1.89s-1.79-.69-1.79-1.89ZM59.59,72.66v-4.11c0-.54-.24-.74-.61-.74s-.61.2-.61.74v4.11c0,.54.24.74.61.74s.61-.2.61-.74Z"/>
        <path class="cls-3" d="M63.23,68.63h-1.24v-.84c1,0,1.35-.21,1.62-.95h.8v7.52h-1.18v-5.74Z"/>
        <path class="cls-3" d="M65.84,72.59v-.59h1.12v.68c0,.54.24.73.61.73s.61-.19.61-.73v-1.69c0-.54-.24-.74-.61-.74s-.61.2-.61.74v.06h-1.12l.21-4.2h3.12v1.07h-2.06l-.1,1.79h.02c.21-.35.55-.55,1.02-.55.87,0,1.31.61,1.31,1.72v1.7c0,1.2-.6,1.89-1.76,1.89s-1.76-.69-1.76-1.89Z"/>
      </g>
      <g>
        <polygon class="cls-3" points="31.03 36.62 31.03 39.71 33.89 39.71 33.89 49.25 31.03 49.25 31.03 52.36 40.46 52.36 40.46 49.25 37.46 49.25 37.46 39.71 40.46 39.71 40.46 36.62 31.03 36.62"/>
        <path class="cls-3" d="M52.38,36.62h3.42v5.2h-3.42s-.82-2.49-3.38-2.78-3.3.89-3.04,1.78,1,1.34,4.34,1.67,6.53,2.52,5.79,6.05c-.74,3.53-6.2,6.27-10.95,2.15v1.67h-3.45v-5.49h3.3s1.48,3.04,4.79,2.82,3.32-3.16,1.18-3.53-7.97-.07-9.01-4.42,5.2-7.46,10.51-3.53l-.07-1.6Z"/>
        <path class="cls-3" d="M73.37,44.25c-.04-1.65-.54-3.27-1.5-4.62-2.58-3.61-6.85-3.38-6.85-3.38-4.29-.37-9.22,3.86-8.48,9.32.74,5.46,4.6,6.79,7.68,7.19,3.08.39,5.87-.73,7.83-3.27,1.16-1.5,1.35-3.69,1.31-5.24ZM68.7,45.95c0,.7-.19,1.4-.59,1.98-.48.7-1.34,1.4-2.89,1.56,0,0-3.47.11-3.88-3.24-.01-.12-.02-.24-.02-.36v-2.91c0-.67.18-1.33.55-1.88.49-.73,1.4-1.47,3.1-1.54,0,0,3.01-.08,3.67,3.27.04.22.06.45.06.68v2.46Z"/>
      </g>
      <g class="cls-1">
        <g>
          <path class="cls-3" d="M65.66,35.23c-.05-.07-4.62-7.28-13.18-7.5-.08,0-.15,0-.23,0-10.26,0-14.56,7.23-14.6,7.31l-.55-.32c.05-.08,1.15-1.97,3.61-3.86,2.26-1.75,6.14-3.81,11.77-3.75,4.66.12,8.14,2.23,10.23,3.98,2.27,1.89,3.42,3.74,3.47,3.82l-.54.33Z"/>
          <path class="cls-3" d="M41.62,35.23l-.54-.33c.13-.2,3.11-4.98,6.53-6.16l.21.6c-3.2,1.11-6.17,5.85-6.2,5.9Z"/>
          <path class="cls-3" d="M46.41,35.13l-.62-.13c.64-3.07,3.21-5.55,3.32-5.66l.44.46s-2.54,2.46-3.14,5.33Z"/>
          <rect class="cls-3" x="51.2" y="29.64" width=".63" height="5.35"/>
          <path class="cls-3" d="M56.68,35.14c-.71-3.05-3.43-5.42-3.46-5.44l.41-.48c.12.1,2.91,2.52,3.67,5.78l-.61.14Z"/>
          <path class="cls-3" d="M61.45,35.21c-2.15-4.23-6.11-5.96-6.15-5.98l.25-.58c.17.07,4.21,1.84,6.47,6.27l-.56.29Z"/>
          <path class="cls-3" d="M51.57,34.08s-.04,0-.06,0c-7.84-.15-10.31-2.97-10.41-3.09l.48-.41s2.42,2.73,9.94,2.87c.02,0,.03,0,.05,0,5.85,0,10.05-2.89,10.09-2.92l.36.52c-.18.12-4.39,3.04-10.46,3.04Z"/>
          <path class="cls-3" d="M51.05,29.97c-3.16,0-4.8-1.39-4.87-1.46l.41-.48s1.71,1.43,4.92,1.29c2.29-.1,4.03-.58,5.17-1.43l.38.51c-.46.34-1.88,1.39-5.52,1.55-.16,0-.32.01-.48.01Z"/>
        </g>
      </g>
      <g class="cls-4">
        <g>
          <path class="cls-3" d="M65.66,53.24c-.05.07-4.62,7.28-13.18,7.5-.08,0-.15,0-.23,0-10.26,0-14.56-7.23-14.6-7.31l-.55.32c.05.08,1.15,1.97,3.61,3.86,2.26,1.75,6.14,3.81,11.77,3.75,4.66-.12,8.14-2.23,10.23-3.98,2.27-1.89,3.42-3.74,3.47-3.82l-.54-.33Z"/>
          <path class="cls-3" d="M41.62,53.24l-.54.33c.13.2,3.11,4.98,6.53,6.16l.21-.6c-3.2-1.11-6.17-5.85-6.2-5.9Z"/>
          <path class="cls-3" d="M46.41,53.34l-.62.13c.64,3.07,3.21,5.55,3.32,5.66l.44-.46s-2.54-2.46-3.14-5.33Z"/>
          <rect class="cls-3" x="51.2" y="53.48" width=".63" height="5.35"/>
          <path class="cls-3" d="M56.68,53.34c-.71,3.05-3.43,5.42-3.46,5.44l.41.48c.12-.1,2.91-2.52,3.67-5.78l-.61-.14Z"/>
          <path class="cls-3" d="M61.45,53.27c-2.15,4.23-6.11,5.96-6.15,5.98l.25.58c.17-.07,4.21-1.84,6.47-6.27l-.56-.29Z"/>
          <path class="cls-3" d="M51.57,54.39s-.04,0-.06,0c-7.84.15-10.31,2.97-10.41,3.09l.48.41s2.42-2.73,9.94-2.87c.02,0,.03,0,.05,0,5.85,0,10.05,2.89,10.09,2.92l.36-.52c-.18-.12-4.39-3.04-10.46-3.04Z"/>
          <path class="cls-3" d="M51.05,58.5c-3.16,0-4.8,1.39-4.87,1.46l.41.48s1.71-1.43,4.92-1.29c2.29.1,4.03.58,5.17,1.43l.38-.51c-.46-.34-1.88-1.39-5.52-1.55-.16,0-.32-.01-.48-.01Z"/>
        </g>
      </g>
    </g>
  </g>
</svg>