<svg xmlns="http://www.w3.org/2000/svg" width="134" height="21" viewBox="0 0 134 21">
  <g id="Group_9544" data-name="Group 9544" transform="translate(-4189 -9594)">
    <path id="Polygon_50" data-name="Polygon 50" d="M11,0l3.19,7.2,7.81.82-5.838,5.27L17.8,21,11,17.056,4.2,21l1.637-7.708L0,8.021,7.81,7.2Z" transform="translate(4189 9594)" fill="#ffd83d"/>
    <path id="Polygon_51" data-name="Polygon 51" d="M11,0l3.19,7.2,7.81.82-5.838,5.27L17.8,21,11,17.056,4.2,21l1.637-7.708L0,8.021,7.81,7.2Z" transform="translate(4217 9594)" fill="#ffd83d"/>
    <path id="Polygon_52" data-name="Polygon 52" d="M11,0l3.19,7.2,7.81.82-5.838,5.27L17.8,21,11,17.056,4.2,21l1.637-7.708L0,8.021,7.81,7.2Z" transform="translate(4245 9594)" fill="#ffd83d"/>
    <path id="Polygon_53" data-name="Polygon 53" d="M11,0l3.19,7.2,7.81.82-5.838,5.27L17.8,21,11,17.056,4.2,21l1.637-7.708L0,8.021,7.81,7.2Z" transform="translate(4273 9594)" fill="#ffd83d"/>
    <path id="Polygon_54" data-name="Polygon 54" d="M11,0l3.19,7.2,7.81.82-5.838,5.27L17.8,21,11,17.056,4.2,21l1.637-7.708L0,8.021,7.81,7.2Z" transform="translate(4301 9594)" fill="#ffd83d"/>
  </g>
</svg>
