<svg id="Icon_feather-users" data-name="Icon feather-users" xmlns="http://www.w3.org/2000/svg" width="35.024" height="29.186" viewBox="0 0 35.024 29.186">
  <path id="Path_2092" data-name="Path 2092" d="M24.808,32.675a1.459,1.459,0,0,1-1.459-1.459V28.3a4.383,4.383,0,0,0-4.378-4.378H7.3A4.378,4.378,0,0,0,2.919,28.3v2.919a1.459,1.459,0,1,1-2.919,0V28.3A7.3,7.3,0,0,1,7.3,21H18.971a7.3,7.3,0,0,1,7.3,7.3v2.919A1.459,1.459,0,0,1,24.808,32.675Z" transform="translate(0 -3.488)" fill="#fff"/>
  <path id="Path_2093" data-name="Path 2093" d="M13.3,3A7.3,7.3,0,1,1,6,10.3,7.3,7.3,0,0,1,13.3,3Zm0,11.675A4.378,4.378,0,1,0,8.919,10.3,4.383,4.383,0,0,0,13.3,14.675Z" transform="translate(-0.163 -3)" fill="#fff"/>
  <path id="Path_2094" data-name="Path 2094" d="M34.337,32.68a1.459,1.459,0,0,1-1.459-1.459V28.3a4.378,4.378,0,0,0-3.283-4.235,1.459,1.459,0,1,1,.73-2.826A7.3,7.3,0,0,1,35.8,28.3v2.92A1.459,1.459,0,0,1,34.337,32.68Z" transform="translate(-0.773 -3.493)" fill="#fff"/>
  <path id="Path_2095" data-name="Path 2095" d="M23.958,17.424A1.46,1.46,0,0,1,23.6,14.55a4.378,4.378,0,0,0,0-8.482,1.459,1.459,0,1,1,.724-2.827,7.3,7.3,0,0,1,0,14.137A1.463,1.463,0,0,1,23.958,17.424Z" transform="translate(-0.61 -3.005)" fill="#fff"/>
</svg>
