<svg width="81" height="81" viewBox="0 0 81 81" fill="none" xmlns="http://www.w3.org/2000/svg">
<rect x="0.820312" y="0.36377" width="80" height="80" rx="10" fill="#F9F9F9"/>
<g clip-path="url(#clip0_105_152)">
<path d="M22.1352 44.8315C21.8696 44.1017 21.0626 43.7255 20.3327 43.9911L17.8413 44.8979C17.5701 44.9966 17.3359 45.1763 17.1704 45.4127C17.0048 45.6491 16.916 45.9307 16.916 46.2193V62.9575C16.916 63.7341 17.5456 64.3638 18.3223 64.3638H24.4145C24.5786 64.3638 24.7413 64.3351 24.8955 64.2789L27.387 63.3721C28.1168 63.1065 28.493 62.2995 28.2274 61.5696L22.1352 44.8315ZM64.5131 49.3851C63.7982 47.4213 61.5542 46.4916 59.66 47.3748L53.0255 50.4679C53.0177 50.7846 52.9861 51.1003 52.9311 51.4123C52.3252 54.8485 49.0367 57.1512 45.6005 56.5453L36.1313 54.8756C35.3665 54.7408 34.8557 54.0113 34.9906 53.2465C35.1255 52.4817 35.8548 51.971 36.6197 52.1059L46.089 53.7756C48.001 54.1127 49.8243 52.836 50.1615 50.924C50.4986 49.0119 49.2219 47.1886 47.3099 46.8516L42.7899 46.0546C41.4373 45.8161 40.176 45.3031 39.0411 44.5298C35.7423 42.2825 31.5334 41.7557 27.7824 43.121L24.8889 44.1741L31.0356 61.0619L42.9487 62.6991C44.4068 62.8995 45.8665 62.6442 47.17 61.9611L62.8193 53.7593C64.3994 52.931 65.1233 51.0617 64.5131 49.3851ZM39.8077 23.8638H49.3369L51.4369 18.2638C51.7816 17.3444 51.102 16.3638 50.1201 16.3638H39.0244C38.0426 16.3638 37.3629 17.3444 37.7077 18.2638L39.8077 23.8638Z" fill="#F48120"/>
<path d="M40.1466 41.8927C39.6642 41.3167 39.7178 40.4583 40.2795 39.9493C40.855 39.4278 41.7443 39.4715 42.2659 40.047C42.8712 40.715 43.8251 41.1137 44.8175 41.1137C45.7527 41.1137 46.4092 40.5666 46.5036 40.0377C46.6283 39.3393 45.5575 38.8865 45.2263 38.7643C43.6233 38.173 42.1997 37.5394 42.14 37.5126C42.0722 37.4825 42.007 37.4469 41.9449 37.4064C40.8188 36.6724 40.2387 35.3851 40.4308 34.047C40.6351 32.6239 41.6738 31.4651 43.1416 31.023C45.9543 30.1755 48.2775 32.0203 48.4732 32.1816L48.4753 32.1834L48.4846 32.1911L48.4842 32.1916C48.7908 32.4495 48.986 32.8356 48.986 33.2676C48.986 34.0443 48.3563 34.6739 47.5797 34.6739C47.2486 34.6742 46.9282 34.5572 46.6752 34.3437L46.6748 34.3442L46.6836 34.3515C46.6706 34.3409 45.3573 33.2931 43.9527 33.7161C43.3554 33.896 43.2376 34.287 43.2146 34.4467C43.199 34.5551 43.191 34.8122 43.4134 35.0005C43.791 35.1656 44.9529 35.666 46.1994 36.1257C48.8692 37.1105 49.5372 39.0476 49.2721 40.5321C48.9884 42.1212 47.7106 43.3578 46.054 43.7742L47.7979 44.0817C49.4624 44.3751 50.9131 45.2993 51.8825 46.6839C52.0942 46.9859 52.2794 47.3056 52.436 47.6394L58.4001 44.8589V41.1422C58.4001 37.8596 57.488 34.6487 55.7622 31.8564C54.5003 29.815 52.8353 28.0523 50.8689 26.6763H38.2753C36.309 28.0523 34.6439 29.815 33.382 31.8564C31.9303 34.2043 31.0495 36.8601 30.8105 39.6102C31.2144 39.5781 31.6205 39.5612 32.0283 39.5612C34.9214 39.5612 37.716 40.3656 40.1466 41.8927Z" fill="#F48120"/>
</g>
<defs>
<clipPath id="clip0_105_152">
<rect width="48" height="48" fill="white" transform="translate(16.8203 16.3638)"/>
</clipPath>
</defs>
</svg>
