<svg id="Icon_ionic-ios-checkmark-circle-outline" data-name="Icon ionic-ios-checkmark-circle-outline" xmlns="http://www.w3.org/2000/svg" width="31.899" height="31.899" viewBox="0 0 31.899 31.899">
  <path id="Path_2096" data-name="Path 2096" d="M26.859,13.686,25.51,12.3a.29.29,0,0,0-.215-.092h0a.278.278,0,0,0-.215.092l-9.355,9.424-3.4-3.4a.3.3,0,0,0-.429,0l-1.365,1.365a.306.306,0,0,0,0,.437l4.294,4.294a1.358,1.358,0,0,0,.9.437,1.423,1.423,0,0,0,.889-.422h.008L26.867,14.123A.328.328,0,0,0,26.859,13.686Z" transform="translate(-2.736 -2.575)" fill="#fff"/>
  <path id="Path_2097" data-name="Path 2097" d="M19.324,5.522A13.8,13.8,0,1,1,9.563,9.563a13.711,13.711,0,0,1,9.761-4.041m0-2.147A15.949,15.949,0,1,0,35.274,19.324,15.947,15.947,0,0,0,19.324,3.375Z" transform="translate(-3.375 -3.375)" fill="#fff"/>
</svg>
