<svg id="building-svgrepo-com" xmlns="http://www.w3.org/2000/svg" xmlns:xlink="http://www.w3.org/1999/xlink" width="35" height="35" viewBox="0 0 35 35">
  <defs>
    <linearGradient id="linear-gradient" x1="0.5" x2="0.5" y2="1" gradientUnits="objectBoundingBox">
      <stop offset="0" stop-color="#f48120"/>
      <stop offset="1" stop-color="#ffc391"/>
    </linearGradient>
  </defs>
  <path id="Path_404" data-name="Path 404" d="M17.313,6.621,9.572,2.788c-4.176-2.047-7.6.035-7.6,4.62v25.97A3.665,3.665,0,0,0,5.658,37H18.624a1.754,1.754,0,0,0,1.747-1.75V11.468A5.953,5.953,0,0,0,17.313,6.621ZM14.2,22.563H8.139a1.312,1.312,0,0,1,0-2.625H14.2a1.312,1.312,0,0,1,0,2.625Zm0-7H8.139a1.312,1.312,0,0,1,0-2.625H14.2a1.312,1.312,0,0,1,0,2.625Z" transform="translate(-1.971 -2)"/>
  <path id="Path_405" data-name="Path 405" d="M27.98,18.039v2.555a4.373,4.373,0,0,1-4.369,4.375H15.7a1.687,1.687,0,0,1-1.7-1.7v-3.78a7.177,7.177,0,0,0,5.26-1.452,6.942,6.942,0,0,0,8.72,0Z" transform="translate(7.02 10.029)" fill="url(#linear-gradient)"/>
  <path id="Path_406" data-name="Path 406" d="M27.98,18.091v.017a4.363,4.363,0,0,1-8.72-.245A4.4,4.4,0,0,1,14,22.151v-9.4a1.752,1.752,0,0,1,2.132-1.715l3.128.7.839.192,3.565.8a6.794,6.794,0,0,1,2.324.91.017.017,0,0,0,.017.017,3.8,3.8,0,0,1,.507.42,5.541,5.541,0,0,1,1.45,3.692C27.962,17.881,27.98,17.986,27.98,18.091Z" transform="translate(7.02 4.747)" fill="url(#linear-gradient)"/>
</svg>
