<svg id="rocket-svgrepo-com" xmlns="http://www.w3.org/2000/svg" xmlns:xlink="http://www.w3.org/1999/xlink" width="35" height="35" viewBox="0 0 35 35">
  <defs>
    <linearGradient id="linear-gradient" x1="0.5" x2="0.5" y2="1" gradientUnits="objectBoundingBox">
      <stop offset="0" stop-color="#f48120"/>
      <stop offset="1" stop-color="#ffc391"/>
    </linearGradient>
  </defs>
  <path id="Path_407" data-name="Path 407" d="M21.053,27.159l10.232-10.2c1.474-1.469,2.21-2.2,2.6-3.138s.388-1.973.388-4.051V8.777c0-3.195,0-4.792-1-5.785S30.678,2,27.474,2h-1c-2.084,0-3.126,0-4.063.387s-1.674,1.121-3.147,2.591L9.037,15.179c-1.722,1.717-2.789,2.781-3.2,3.809a2.591,2.591,0,0,0-.2.983c0,1.4,1.133,2.533,3.4,4.792l.3.3,3.567-3.621a1.312,1.312,0,1,1,1.87,1.842L11.2,26.92l.24.239c2.266,2.259,3.4,3.389,4.807,3.389a2.59,2.59,0,0,0,.908-.165C18.211,29.994,19.288,28.919,21.053,27.159ZM25.86,15.18a3.394,3.394,0,1,1,0-4.792A3.406,3.406,0,0,1,25.86,15.18Z" transform="translate(0.728 -2)" fill-rule="evenodd"/>
  <g id="Group_221" data-name="Group 221" transform="translate(0 5.308)">
    <path id="Path_408" data-name="Path 408" d="M14.31,6.66,9.859,11.1c-.818.816-1.568,1.564-2.161,2.24a10.639,10.639,0,0,0-1.083,1.435l-.043-.043-.165-.163a8.5,8.5,0,0,0-2.681-1.758l-.216-.086-.663-.263a1.338,1.338,0,0,1-.454-2.192c1.96-1.954,4.314-4.3,5.45-4.772a5.915,5.915,0,0,1,3.128-.4A8.992,8.992,0,0,1,14.31,6.66Z" transform="translate(-2 -5.033)" fill="url(#linear-gradient)"/>
    <path id="Path_409" data-name="Path 409" d="M13.377,22.6a10.473,10.473,0,0,1,.812.9,8.463,8.463,0,0,1,.759,1.151,17.613,17.613,0,0,1,.83,1.911,1.21,1.21,0,0,0,1.97.393l.147-.147c1.96-1.955,4.314-4.3,4.787-5.434a5.864,5.864,0,0,0,.4-3.118,8.937,8.937,0,0,0-1.57-3.328l-4.465,4.452c-.837.834-1.6,1.6-2.3,2.2A10.512,10.512,0,0,1,13.377,22.6Z" transform="translate(6.532 2.387)" fill="url(#linear-gradient)"/>
  </g>
</svg>
