<?xml version="1.0" encoding="UTF-8"?>
<svg id="Layer_2" data-name="Layer 2" xmlns="http://www.w3.org/2000/svg" xmlns:xlink="http://www.w3.org/1999/xlink" viewBox="0 0 103 103">
  <defs>
    <style>
      .cls-1 {
        clip-path: url(#clippath-2);
      }

      .cls-2 {
        fill: none;
      }

      .cls-2, .cls-3 {
        stroke-width: 0px;
      }

      .cls-3 {
        fill: #fff;
      }

      .cls-4 {
        clip-path: url(#clippath-3);
      }
    </style>
    <clipPath id="clippath-2">
      <rect class="cls-2" x="36.47" y="26.61" width="30.48" height="7.87"/>
    </clipPath>
    <clipPath id="clippath-3">
      <rect class="cls-2" x="36.47" y="52.62" width="30.48" height="7.87"/>
    </clipPath>
  </defs>
  <g id="Layer_1-2" data-name="Layer 1">
    <g>
      <path class="cls-3" d="M51.5,0C23.06,0,0,23.06,0,51.5s23.06,51.5,51.5,51.5,51.5-23.06,51.5-51.5S79.94,0,51.5,0ZM51.5,101.31C23.99,101.31,1.69,79.01,1.69,51.5S23.99,1.69,51.5,1.69s49.81,22.3,49.81,49.81-22.3,49.81-49.81,49.81Z"/>
      <path class="cls-3" d="M51.5,16.38c-19.39,0-35.12,15.72-35.12,35.12s15.72,35.12,35.12,35.12,35.12-15.72,35.12-35.12-15.72-35.12-35.12-35.12ZM51.5,84.49c-18.22,0-32.99-14.77-32.99-32.99s14.77-32.99,32.99-32.99,32.99,14.77,32.99,32.99-14.77,32.99-32.99,32.99Z"/>
      <g>
        <path class="cls-3" d="M14.3,65.08l-6.87,2.27-.37-1.12,6.87-2.27.37,1.12Z"/>
        <path class="cls-3" d="M13.53,62.84l-5.42,1.17-.19-.89.75-.26-.02-.07c-.23-.09-.43-.21-.6-.36-.17-.15-.31-.33-.43-.53-.12-.2-.2-.43-.26-.69-.07-.34-.08-.66-.02-.95.06-.29.21-.53.45-.74.24-.21.58-.36,1.03-.46l3.7-.8.23,1.07-3.53.76c-.21.04-.37.11-.5.19-.13.08-.22.18-.28.29-.06.11-.1.24-.1.38,0,.14,0,.29.04.44.05.25.16.46.33.64.16.18.37.3.61.38s.5.09.79.02l3.17-.69.23,1.07Z"/>
        <path class="cls-3" d="M12.44,57.06l-4.61.49.09.81-.9.1-.09-.81-.8.08c-.23.02-.45.01-.66-.04-.21-.05-.39-.16-.54-.33-.15-.17-.25-.43-.28-.77-.01-.1-.02-.2-.02-.3,0-.1,0-.2.02-.29.01-.09.03-.18.05-.25l.77-.08.06.53c.02.17.07.29.17.36.09.07.22.1.38.08l.75-.08-.11-1.03.9-.1.11,1.03,4.61-.49.12,1.09Z"/>
        <path class="cls-3" d="M12.29,52.35c0,.58-.12,1.06-.33,1.46s-.54.69-.97.88c-.43.19-.98.28-1.64.27-.67-.01-1.21-.12-1.63-.33s-.73-.51-.93-.91-.3-.89-.29-1.47c0-.59.12-1.08.33-1.47.21-.39.53-.68.96-.88s.98-.28,1.64-.27c.66.01,1.2.12,1.63.33.43.21.74.51.94.91.2.4.3.89.29,1.48ZM11.38,52.34c0-.35-.06-.64-.19-.87-.13-.23-.34-.4-.62-.51-.28-.11-.63-.17-1.06-.18h-.19c-.43-.01-.78.04-1.07.14-.28.1-.49.27-.64.49-.14.22-.21.51-.22.86,0,.34.06.63.19.86.13.23.34.4.62.51.28.11.63.17,1.06.18h.19c.43,0,.78-.04,1.07-.14.28-.1.49-.27.64-.49.14-.22.21-.51.22-.85Z"/>
        <path class="cls-3" d="M12.29,48.93l-5.51-.64.1-.9h.9s0-.05,0-.05c-.17-.08-.32-.18-.46-.3-.14-.12-.25-.27-.33-.44-.08-.18-.1-.38-.08-.62.01-.11.04-.21.07-.29.03-.08.06-.15.08-.2l1.03.12-.04.37c-.03.22-.01.42.04.6.05.18.14.33.26.47.12.13.28.23.47.31.19.08.41.13.65.16l2.95.34-.13,1.09Z"/>
        <path class="cls-3" d="M12.52,45.81l-5.35-1.46.24-.87.79.12.02-.07c-.16-.18-.29-.36-.37-.56-.09-.19-.14-.4-.15-.62-.01-.22.01-.44.07-.67.09-.33.24-.6.44-.81.2-.21.48-.34.84-.38l.02-.07c-.16-.17-.28-.36-.37-.56-.09-.2-.14-.41-.15-.64-.01-.23.02-.46.08-.69.09-.32.22-.59.4-.8.18-.21.42-.36.72-.43.3-.07.67-.05,1.1.07l3.7,1.01-.29,1.06-3.51-.95c-.2-.06-.38-.08-.52-.07-.15.01-.27.05-.37.11s-.18.14-.25.25c-.07.11-.12.23-.15.36-.06.22-.06.44.01.65.07.21.2.4.38.56.18.17.41.29.7.36l3.13.85-.29,1.06-3.51-.95c-.2-.06-.38-.08-.52-.07-.15.01-.27.05-.37.11-.1.06-.18.14-.25.25-.07.11-.12.22-.15.35-.06.22-.06.44.01.66.07.22.19.41.37.57.18.17.41.29.7.36l3.13.85-.29,1.06Z"/>
        <path class="cls-3" d="M15.65,36.51c-.08.16-.18.32-.3.49-.13.17-.28.31-.46.42-.18.11-.38.18-.61.19-.23.02-.49-.05-.78-.18-.34-.16-.59-.38-.74-.64-.15-.26-.22-.57-.21-.92,0-.35.08-.73.22-1.15.14-.42.32-.87.54-1.34l-.5-.23c-.17-.08-.32-.12-.48-.13-.15,0-.3.05-.44.16-.14.11-.27.3-.4.57s-.19.49-.2.67c0,.18.03.32.1.43.07.11.16.19.28.24l.14.07-.45.95s-.07-.02-.1-.04c-.03-.01-.07-.03-.11-.05-.3-.14-.51-.35-.64-.61-.13-.27-.17-.58-.14-.93.04-.36.15-.73.34-1.13.2-.43.44-.76.7-.99.26-.23.54-.36.84-.4.3-.04.61.02.93.17l2.54,1.2c.12.06.22.07.3.03.08-.04.14-.1.18-.18l.16-.34.67.32c0,.09-.02.2-.04.33-.02.13-.07.27-.14.42-.08.17-.18.3-.3.39-.12.09-.25.14-.39.16-.15.02-.29.01-.45-.03l-.03.06c.09.18.16.38.19.6.03.21.03.44,0,.68-.04.24-.12.49-.24.75ZM14.96,35.85c.09-.2.15-.39.17-.59.02-.2,0-.38-.05-.56-.05-.17-.14-.33-.26-.48-.12-.14-.28-.26-.46-.35l-.33-.16c-.21.44-.36.83-.47,1.19-.11.35-.13.66-.08.91.05.25.19.43.44.54.15.07.28.1.41.08.13-.02.25-.08.36-.18.11-.1.21-.24.29-.41Z"/>
        <path class="cls-3" d="M18.19,31.77c-.16.27-.35.45-.55.54-.2.09-.4.11-.6.08-.2-.04-.4-.11-.58-.23l-2.98-1.82-.36.59-.77-.47.37-.61-1.22-.98.46-.75,1.32.81.52-.85.77.47-.52.85,2.87,1.75c.14.08.26.12.37.1.11-.02.2-.09.29-.23l.29-.47.63.38c-.01.07-.04.16-.07.26-.03.1-.07.2-.11.3-.04.1-.08.19-.13.27Z"/>
        <path class="cls-3" d="M13.65,26.62l-.91-.65.63-.9.91.65-.63.9ZM18.96,30.38l-4.53-3.2.63-.9,4.53,3.2-.63.9Z"/>
        <path class="cls-3" d="M21.81,26.91c-.38.43-.78.73-1.19.9-.42.16-.85.18-1.31.05-.45-.13-.93-.41-1.43-.85-.5-.44-.85-.87-1.04-1.3-.19-.43-.23-.86-.13-1.3.1-.44.35-.87.73-1.3.39-.44.79-.75,1.2-.91.42-.16.85-.18,1.3-.05.45.13.93.41,1.43.85.5.43.84.87,1.03,1.3.19.43.24.87.13,1.3-.1.43-.35.87-.74,1.32ZM21.13,26.31c.23-.26.37-.53.41-.79.04-.26,0-.52-.14-.79-.14-.27-.37-.54-.7-.82l-.14-.12c-.32-.28-.63-.47-.91-.58-.28-.1-.55-.11-.8-.04-.25.08-.49.25-.72.52-.23.26-.36.52-.41.78-.04.26,0,.52.14.79.14.27.37.54.7.82l.14.12c.32.28.63.47.91.58.28.1.55.11.8.04.25-.08.49-.25.72-.51Z"/>
        <path class="cls-3" d="M23.92,24.4l-3.62-4.2.69-.59.59.54.06-.05c-.03-.24-.02-.47.03-.69.05-.22.14-.43.26-.63.12-.2.28-.38.49-.56.27-.23.54-.38.82-.47.28-.08.57-.07.86.04.29.11.59.34.89.69l2.47,2.87-.83.72-2.36-2.74c-.14-.16-.27-.28-.4-.35-.13-.07-.26-.11-.39-.11-.13,0-.26.03-.38.09-.12.06-.25.14-.37.25-.19.17-.33.36-.4.59-.08.23-.09.47-.05.71.05.25.17.48.36.71l2.12,2.46-.83.72Z"/>
        <path class="cls-3" d="M32.27,18.45c-.34.19-.7.34-1.05.45-.36.11-.7.15-1.04.13-.33-.02-.64-.11-.91-.28-.28-.16-.51-.42-.69-.75-.02-.04-.04-.07-.05-.11-.02-.04-.03-.07-.04-.09l1.03-.57s.02.05.04.09c.02.04.03.07.05.09.13.23.3.38.52.47.22.09.48.1.77.05.29-.05.59-.17.9-.34.17-.1.33-.2.48-.31.15-.11.28-.22.38-.34.11-.12.19-.24.25-.37.06-.13.09-.25.09-.38,0-.13-.03-.26-.11-.39-.11-.2-.26-.33-.44-.39-.19-.07-.4-.09-.64-.07-.24.02-.5.07-.78.13-.28.07-.57.14-.86.21-.3.08-.59.13-.88.18-.29.04-.57.05-.84.03-.27-.02-.51-.11-.74-.24-.22-.14-.42-.35-.58-.64-.15-.28-.23-.55-.23-.83,0-.28.07-.55.21-.82.14-.27.35-.52.61-.77.27-.24.59-.47.98-.69.33-.18.67-.32,1-.42.33-.09.65-.13.96-.1.3.03.58.12.83.27.25.16.46.39.64.71l.06.11-1.02.57-.07-.12c-.11-.2-.26-.33-.45-.4-.19-.07-.41-.08-.66-.04-.25.04-.51.14-.79.29-.33.18-.58.36-.77.55-.19.19-.3.37-.35.55-.05.18-.03.35.06.5.1.18.24.29.42.34.18.05.39.06.63.03.24-.03.5-.08.77-.15s.57-.14.86-.21c.29-.07.59-.13.88-.17.29-.04.58-.05.84-.02.27.03.52.11.74.24.23.14.42.35.58.64.25.46.34.89.27,1.3-.07.41-.27.79-.59,1.14-.32.35-.74.66-1.25.95Z"/>
        <path class="cls-3" d="M37.69,15.98c-.53.2-1.02.26-1.45.2-.43-.06-.81-.26-1.15-.59-.33-.33-.61-.81-.84-1.43-.23-.63-.33-1.17-.29-1.64.04-.47.2-.86.49-1.19.29-.33.71-.59,1.25-.79.49-.18.94-.24,1.35-.18.4.07.76.26,1.07.58.31.32.58.77.79,1.35l.15.4-3.65,1.34c.15.36.32.65.51.86.19.21.41.34.65.38.24.04.52,0,.83-.11.19-.07.35-.16.49-.26.13-.11.24-.23.31-.36.07-.13.11-.28.12-.44,0-.16-.02-.32-.08-.49l1.01-.37c.11.31.16.6.14.88s-.1.53-.24.77c-.14.24-.34.45-.58.64-.25.19-.54.34-.87.47ZM35.15,13.26l2.55-.94c-.09-.26-.2-.46-.32-.62-.12-.15-.25-.27-.4-.34-.15-.07-.3-.11-.47-.1-.16,0-.34.04-.52.11-.28.1-.49.24-.65.41-.16.17-.25.38-.28.63-.03.25,0,.53.09.86Z"/>
        <path class="cls-3" d="M42.72,14.52c-.54.12-1.02.12-1.43,0-.41-.12-.75-.37-1.02-.75-.27-.38-.48-.89-.62-1.54-.14-.65-.17-1.2-.07-1.65.09-.46.3-.83.62-1.11.32-.29.75-.49,1.29-.61.37-.08.7-.11,1-.07.29.03.56.12.79.26.23.14.42.33.58.58s.27.54.34.89l-1.08.24c-.06-.29-.16-.52-.28-.68-.12-.17-.28-.28-.47-.33-.19-.05-.43-.05-.7,0-.29.06-.52.18-.69.36-.17.18-.28.41-.32.71-.04.29-.02.66.08,1.1l.04.18c.09.42.22.76.38,1.01.16.26.36.43.59.52.23.09.51.1.82.03.27-.06.48-.16.63-.3.15-.14.24-.31.29-.52.04-.21.04-.45-.02-.71l1.04-.23c.07.32.09.62.05.91-.04.28-.13.54-.27.77-.15.23-.35.43-.61.59-.26.17-.57.29-.94.37Z"/>
        <path class="cls-3" d="M47.29,13.8c-.53.04-.97-.06-1.33-.32-.35-.26-.56-.73-.61-1.42l-.3-3.77,1.09-.09.29,3.61c.02.21.06.38.12.52.06.14.15.24.25.32.1.08.23.13.36.15.14.02.28.03.45.02.25-.02.48-.1.67-.24.2-.14.35-.32.46-.55.11-.23.15-.49.13-.78l-.26-3.24,1.09-.09.44,5.53-.89.07-.16-.78h-.07c-.12.22-.26.4-.43.55-.17.15-.36.27-.58.35-.22.09-.46.14-.72.16Z"/>
        <path class="cls-3" d="M51.16,13.49l.18-5.54.91.03.07.9h.06c.07-.17.16-.33.26-.49.11-.15.24-.27.41-.37.17-.09.37-.14.61-.13.11,0,.21.02.3.04.09.02.15.04.2.06l-.03,1.03h-.37c-.22-.02-.42,0-.6.07-.17.06-.32.16-.44.3-.12.13-.21.3-.27.49-.06.2-.09.42-.1.66l-.1,2.97-1.1-.04Z"/>
        <path class="cls-3" d="M54.55,13.67l.58-5.52,1.09.11-.58,5.52-1.09-.11ZM55.22,7.19l.12-1.11,1.09.11-.12,1.11-1.09-.11Z"/>
        <path class="cls-3" d="M58.14,14.29c-.31-.05-.55-.16-.7-.31-.16-.15-.25-.33-.29-.53-.04-.2-.04-.41,0-.63l.6-3.44-.69-.12.16-.89.71.12.46-1.49.86.15-.27,1.53.99.17-.16.89-.99-.17-.58,3.31c-.03.16-.01.29.04.38.05.1.16.16.32.18l.54.09-.13.73c-.07.02-.16.03-.27.03-.1,0-.21,0-.32,0-.11,0-.21,0-.3-.02Z"/>
        <path class="cls-3" d="M59.66,16.42c-.2-.06-.37-.12-.49-.19-.13-.07-.21-.11-.24-.13l.21-.76.51.14c.15.04.31.05.48.03.17-.02.34-.09.5-.21.16-.11.32-.27.46-.47l-.58-5.92,1.11.31.29,2.95c.01.14.02.3.03.5,0,.2.01.4.02.61,0,.21,0,.39,0,.55h.05c.06-.08.13-.18.21-.31.07-.12.15-.25.23-.38.08-.13.16-.26.24-.38.08-.12.14-.22.2-.31l1.61-2.43,1.08.3-3.25,4.63c-.18.26-.37.49-.56.71-.19.22-.39.39-.61.54-.21.14-.44.23-.69.28-.25.04-.51.02-.81-.06Z"/>
        <path class="cls-3" d="M66.27,16.45l3.44-6.36,1.62.88-.85,4.53c-.02.13-.05.28-.09.44-.04.16-.08.32-.11.47-.04.15-.07.28-.11.39l.07.04c.06-.09.14-.19.25-.3s.21-.23.32-.36c.11-.12.22-.24.32-.34l3.33-3.18,1.6.86-3.44,6.36-1.03-.56,1.89-3.49c.13-.23.26-.48.41-.73.14-.25.27-.47.38-.67.11-.19.18-.32.22-.38l-.07-.04c-.05.06-.14.16-.28.3s-.28.29-.43.45c-.15.16-.28.29-.4.41l-3.41,3.22-.92-.5.83-4.61c.03-.14.06-.3.11-.48s.09-.37.14-.56c.05-.19.09-.36.13-.51l-.07-.04c-.07.15-.17.34-.28.55-.11.22-.23.44-.34.66-.11.22-.22.42-.31.59l-1.89,3.49-1-.54Z"/>
        <path class="cls-3" d="M74.36,21.48c-.14-.11-.27-.24-.41-.4s-.24-.34-.31-.54c-.07-.2-.09-.41-.05-.64.04-.23.15-.47.36-.72.24-.3.5-.49.79-.57.29-.08.6-.08.94,0,.34.09.69.24,1.07.47s.77.5,1.18.83l.34-.43c.11-.14.19-.29.23-.44.04-.15.02-.3-.05-.46-.08-.16-.23-.33-.46-.51-.23-.18-.44-.3-.61-.34-.18-.04-.32-.04-.44,0-.12.04-.22.12-.3.21l-.1.12-.83-.65s.04-.06.06-.09c.02-.03.05-.06.08-.1.2-.26.45-.42.74-.48.29-.06.6-.04.94.08.34.12.68.31,1.03.59.37.3.65.6.81.9.17.31.23.61.2.91-.03.3-.16.59-.38.87l-1.75,2.21c-.08.1-.12.2-.1.29.02.09.06.16.13.21l.3.24-.46.58c-.09-.02-.19-.06-.31-.11-.12-.05-.25-.13-.38-.23-.15-.12-.25-.24-.31-.38s-.08-.27-.07-.42c.01-.15.06-.29.13-.43l-.05-.04c-.2.05-.41.07-.62.05-.22-.01-.44-.07-.66-.16-.22-.09-.45-.23-.67-.41ZM75.16,20.96c.17.14.35.23.54.3.19.06.37.09.55.07.18-.01.36-.06.52-.15.17-.09.31-.21.44-.37l.23-.29c-.38-.3-.73-.54-1.05-.73-.32-.18-.61-.28-.86-.29s-.46.09-.63.3c-.1.13-.16.25-.17.38-.01.13.02.26.09.39.08.13.19.26.34.37Z"/>
        <path class="cls-3" d="M77.46,23.84l4.01-3.83.63.66-.51.61.05.05c.24-.04.47-.05.69,0,.22.04.44.12.64.23.2.11.4.26.58.46.24.25.41.52.51.8.1.28.1.57,0,.87-.09.3-.31.61-.64.93l-2.74,2.62-.76-.79,2.61-2.5c.15-.15.26-.29.33-.42.07-.14.09-.27.09-.4,0-.13-.04-.25-.11-.38-.07-.12-.16-.24-.27-.36-.17-.18-.38-.31-.61-.37-.23-.06-.47-.07-.72,0-.24.06-.47.19-.69.39l-2.35,2.24-.76-.79Z"/>
        <path class="cls-3" d="M81.95,29.11c-.1-.14-.2-.31-.28-.5-.08-.19-.13-.39-.15-.6s.03-.42.13-.63c.1-.21.28-.41.54-.6.31-.22.61-.33.92-.33.3,0,.6.09.9.26.3.17.6.42.9.75s.61.7.91,1.12l.44-.32c.15-.11.26-.23.34-.36.08-.13.1-.28.07-.46-.03-.17-.13-.38-.3-.62s-.34-.4-.49-.5c-.16-.09-.3-.13-.43-.12-.13,0-.24.05-.35.13l-.13.09-.62-.86s.05-.05.08-.07c.03-.02.06-.05.1-.07.27-.19.55-.28.84-.26.29.02.59.13.88.33.29.2.57.49.83.85.28.39.46.75.53,1.09.08.34.06.65-.05.93-.11.28-.31.52-.6.73l-2.28,1.64c-.11.08-.17.16-.17.25,0,.09.02.17.07.24l.22.31-.6.43c-.08-.05-.17-.11-.27-.2-.1-.08-.2-.19-.3-.33-.11-.15-.18-.3-.2-.45s0-.29.05-.42c.05-.14.13-.26.24-.38l-.04-.05c-.21,0-.41-.05-.61-.12-.2-.07-.4-.18-.59-.33s-.37-.34-.54-.57ZM82.87,28.83c.13.18.27.32.44.43.16.11.33.19.51.22.18.04.36.04.54,0s.36-.12.53-.24l.3-.22c-.28-.39-.55-.72-.81-.99-.26-.26-.51-.43-.75-.51-.24-.08-.47-.04-.69.12-.13.09-.22.2-.27.32-.05.12-.05.25-.02.4.04.15.11.3.22.45Z"/>
        <path class="cls-3" d="M83.02,33.95c-.12-.22-.18-.46-.19-.7,0-.25.04-.47.15-.68.11-.21.29-.38.54-.51.27-.14.54-.19.79-.12.25.06.47.17.67.33-.01-.19.03-.36.11-.52s.21-.28.38-.37c.23-.12.46-.14.69-.04.23.09.43.24.59.44.03-.29.12-.56.27-.79.15-.24.37-.43.64-.57.33-.17.66-.25.98-.22.32.03.63.16.93.4.3.24.56.57.8,1.02.1.19.18.38.25.57.06.19.1.36.13.52.23.16.44.24.65.25.21,0,.38-.01.53-.07l.5.95c-.21.11-.41.16-.62.17-.21,0-.41-.04-.59-.13-.19-.09-.35-.22-.51-.41-.06.23-.17.43-.32.61-.15.18-.34.33-.56.44-.32.17-.65.24-.97.22s-.63-.15-.93-.38-.56-.57-.79-1.01l-.4-.77c-.08-.15-.17-.25-.28-.31-.11-.06-.23-.05-.35.01-.11.06-.17.14-.19.27-.02.12,0,.26.08.4l1.09,2.07c.19.36.23.72.11,1.08-.12.36-.36.64-.73.84-.27.14-.56.2-.85.18s-.57-.13-.83-.31c-.26-.18-.48-.44-.65-.77l-1.11-2.11ZM83.91,33.88l.94,1.78c.07.13.16.24.26.32.11.08.22.13.34.14.12.01.24,0,.35-.07.19-.1.3-.23.35-.4.04-.17.02-.34-.06-.51l-.99-1.88c-.09-.17-.23-.29-.4-.35-.18-.06-.35-.04-.52.05-.17.09-.29.22-.33.4-.05.17-.02.35.07.53ZM87.83,32.95c.19.37.42.6.68.69.26.09.53.07.82-.09.29-.15.47-.36.53-.63.06-.26,0-.58-.19-.95-.19-.37-.42-.6-.67-.7-.25-.1-.53-.07-.82.09-.19.1-.33.22-.43.37-.1.15-.14.33-.13.53.01.2.08.43.21.67Z"/>
        <path class="cls-3" d="M87.46,39.37c-.19-.54-.25-1.02-.19-1.45.07-.43.27-.81.61-1.14.34-.33.82-.61,1.44-.83.63-.22,1.18-.32,1.64-.27.47.04.86.21,1.19.5.33.29.59.71.78,1.26.18.5.23.95.16,1.35-.07.4-.26.76-.59,1.07-.32.31-.77.57-1.36.78l-.4.14-1.31-3.66c-.37.15-.66.31-.87.5-.21.19-.34.4-.38.65-.04.24,0,.52.1.83.07.19.16.36.26.49.1.13.22.24.36.31.13.07.28.11.44.12.16.01.32-.01.49-.08l.36,1.01c-.31.11-.6.16-.88.14-.28-.02-.53-.1-.77-.25-.23-.14-.44-.34-.63-.59s-.34-.54-.46-.88ZM90.2,36.86l.92,2.56c.26-.09.46-.2.62-.32.16-.12.27-.25.34-.4.07-.15.11-.3.11-.46,0-.16-.04-.34-.1-.52-.1-.28-.23-.5-.4-.66-.17-.16-.38-.26-.62-.29-.25-.03-.53,0-.86.08Z"/>
        <path class="cls-3" d="M88.64,42.06l5.47-.92.15.89-.76.22v.07c.23.09.42.21.58.35.16.14.29.31.39.5.1.19.18.41.22.64.06.34.04.65-.06.92-.1.28-.3.51-.6.69v.07c.23.09.42.21.58.35s.3.32.4.52c.1.2.18.42.22.66.05.33.05.62-.03.89-.07.27-.23.5-.47.69-.24.19-.59.32-1.03.4l-3.78.64-.18-1.08,3.59-.6c.21-.03.38-.09.5-.16.13-.07.22-.16.29-.25s.11-.21.12-.33c.01-.12.01-.25-.01-.39-.04-.23-.13-.42-.29-.58-.15-.16-.34-.28-.58-.35-.23-.07-.5-.09-.79-.04l-3.2.54-.18-1.08,3.59-.6c.21-.03.38-.09.5-.16.13-.07.22-.16.29-.25.07-.1.11-.21.12-.33.01-.12.01-.25-.01-.38-.04-.23-.13-.43-.29-.59-.15-.17-.35-.29-.58-.36-.23-.07-.5-.09-.79-.04l-3.2.54-.18-1.08Z"/>
        <path class="cls-3" d="M89.68,52.68c0-.57.12-1.04.33-1.42.21-.38.54-.66.97-.85s.98-.28,1.64-.27c.67.01,1.21.12,1.63.32.42.2.73.5.93.89.2.39.3.87.29,1.45,0,.53-.12.97-.32,1.32-.21.35-.51.62-.92.79-.41.18-.93.26-1.54.25h-.42s.06-3.9.06-3.9c-.39,0-.72.06-.99.16-.27.1-.46.26-.59.47-.13.21-.19.48-.2.81,0,.2.02.39.07.55s.13.3.23.42c.1.11.22.2.36.27.14.07.31.1.49.1l-.02,1.08c-.33,0-.62-.07-.87-.18-.25-.12-.46-.28-.63-.5-.17-.22-.3-.47-.38-.77s-.13-.62-.12-.98ZM93.13,51.29l-.04,2.72c.27,0,.5-.02.69-.08.19-.06.34-.14.46-.25.12-.11.21-.24.26-.4.06-.15.08-.33.09-.53,0-.3-.04-.55-.15-.76-.1-.21-.26-.37-.48-.49s-.5-.19-.83-.22Z"/>
        <path class="cls-3" d="M89.73,55.76l5.49.81-.13.9-.8-.02v.07c.17.16.32.34.42.54.11.2.18.42.21.64.04.23.04.48,0,.74-.05.35-.16.64-.32.89-.16.25-.39.42-.68.53-.29.11-.67.13-1.13.06l-3.74-.55.16-1.08,3.58.53c.21.03.39.03.53,0,.15-.03.27-.09.37-.18s.17-.19.23-.32c.05-.13.09-.27.12-.43.04-.25,0-.49-.08-.71-.09-.22-.24-.41-.43-.57-.2-.16-.44-.26-.73-.3l-3.21-.47.16-1.08Z"/>
        <path class="cls-3" d="M88.3,62.63c.08-.31.2-.53.37-.67.16-.14.35-.22.56-.25.21-.02.41,0,.62.05l3.38.88.18-.67.88.23-.18.69,1.45.59-.22.85-1.5-.39-.25.97-.88-.23.25-.97-3.25-.85c-.16-.04-.28-.04-.38,0-.1.05-.17.15-.21.3l-.14.53-.71-.19c0-.08-.01-.17-.01-.27s0-.21.02-.32c0-.11.03-.2.05-.29Z"/>
      </g>
      <g>
        <path class="cls-3" d="M35.94,95.18c-.7-.24-1.25-.57-1.65-.99-.4-.42-.64-.94-.72-1.55-.08-.61.03-1.33.31-2.14.42-1.19,1.02-1.98,1.8-2.36.78-.38,1.69-.39,2.73-.03.57.2,1.05.47,1.44.82.39.35.65.76.78,1.24.13.47.09,1.01-.11,1.6l-1.14-.4c.13-.36.16-.7.09-1-.07-.3-.22-.56-.46-.78s-.54-.4-.91-.53c-.46-.16-.89-.21-1.28-.14-.39.07-.72.26-1.01.57-.29.31-.53.74-.73,1.31l-.08.22c-.2.56-.28,1.06-.24,1.48.04.42.18.78.44,1.06.26.29.62.51,1.09.68.38.13.74.19,1.07.17.33-.02.61-.13.85-.32.24-.19.43-.47.55-.83l1.1.38c-.21.59-.51,1.03-.9,1.33-.4.29-.85.45-1.37.48s-1.07-.06-1.65-.26Z"/>
        <path class="cls-3" d="M42.97,96.99c-.56-.1-1.01-.28-1.35-.56s-.57-.63-.69-1.09c-.12-.46-.12-1.01,0-1.66.12-.66.31-1.18.58-1.56s.61-.65,1.03-.78c.42-.14.91-.16,1.48-.05.52.09.94.27,1.25.53.31.26.53.61.64,1.04.11.43.11.95,0,1.56l-.07.42-3.83-.68c-.05.39-.05.72,0,1,.06.28.18.5.37.65.19.16.45.27.77.32.2.04.39.04.55.02.17-.02.32-.08.45-.16.13-.08.24-.19.32-.32.09-.13.15-.29.18-.47l1.06.19c-.06.33-.16.6-.32.83-.15.23-.35.41-.59.54-.24.13-.52.22-.82.26-.31.04-.64.03-.99-.04ZM42.15,93.36l2.68.47c.05-.27.06-.5.03-.7-.03-.19-.08-.36-.17-.5-.09-.14-.21-.25-.35-.32-.14-.08-.31-.14-.51-.17-.29-.05-.55-.04-.77.02-.22.07-.41.2-.56.4s-.27.46-.35.79Z"/>
        <path class="cls-3" d="M46.9,97.39l.35-5.54.9.06.04.9h.06c.07-.17.17-.33.28-.47.11-.15.25-.27.42-.35.17-.09.38-.12.61-.11.11,0,.21.02.3.05.09.03.15.05.2.07l-.07,1.03-.37-.02c-.22-.01-.42,0-.6.07-.18.06-.33.15-.45.28-.12.13-.22.29-.28.48s-.11.41-.12.66l-.19,2.97-1.09-.07Z"/>
        <path class="cls-3" d="M52.22,97.67c-.32,0-.56-.05-.75-.17-.18-.12-.31-.28-.39-.47-.08-.19-.12-.4-.12-.61l-.06-3.49h-.7s-.01-.9-.01-.9h.72s.18-1.56.18-1.56h.88s.02,1.54.02,1.54l1-.02v.91s-.99.02-.99.02l.05,3.36c0,.16.04.28.11.37.07.08.19.12.35.12h.55s.01.73.01.73c-.07.03-.16.06-.26.08-.1.03-.2.05-.31.07-.11.02-.2.03-.29.03Z"/>
        <path class="cls-3" d="M53.75,90.96l-.09-1.11,1.09-.09.09,1.11-1.09.09ZM54.29,97.44l-.46-5.53,1.09-.09.46,5.53-1.09.09Z"/>
        <path class="cls-3" d="M57.38,97.15l-.82-4.57-.8.14-.16-.89.8-.14-.14-.79c-.04-.23-.04-.45,0-.66.04-.21.13-.4.29-.57.16-.16.41-.28.75-.34.1-.02.2-.03.3-.04.1,0,.2,0,.29,0,.09,0,.18.01.25.03l.14.76-.53.1c-.17.03-.28.09-.35.19-.06.1-.08.23-.05.38l.13.75,1.02-.18.16.89-1.02.18.82,4.57-1.08.19ZM59.03,90.25l-.2-1.1,1.08-.19.2,1.1-1.08.19ZM60.18,96.65l-.98-5.46,1.08-.19.98,5.46-1.08.19Z"/>
        <path class="cls-3" d="M65.34,95.41c-.54.18-1.03.22-1.46.15-.43-.08-.8-.29-1.12-.64-.32-.35-.58-.83-.79-1.46-.21-.64-.28-1.19-.23-1.65.06-.47.24-.86.54-1.17.3-.32.73-.56,1.28-.74.5-.16.95-.2,1.35-.12.4.08.75.29,1.05.62.3.33.55.79.74,1.38l.13.4-3.7,1.2c.13.37.29.66.47.88.18.22.39.35.64.4.24.05.52.03.83-.08.19-.06.36-.14.5-.24.14-.1.24-.22.32-.35.08-.13.12-.28.14-.43.02-.16,0-.32-.06-.5l1.02-.33c.1.31.14.61.11.88-.03.28-.12.53-.27.76-.15.23-.35.43-.61.61-.25.18-.55.32-.89.43ZM62.9,92.6l2.59-.84c-.08-.26-.18-.47-.3-.63-.11-.16-.24-.28-.39-.36-.14-.08-.3-.12-.46-.12-.16,0-.34.03-.53.09-.28.09-.5.22-.67.38-.16.16-.27.37-.3.61-.04.25-.02.53.06.86Z"/>
        <path class="cls-3" d="M70.89,93.19c-.4.2-.8.28-1.19.24-.39-.04-.75-.21-1.1-.52-.35-.31-.67-.77-.97-1.38-.29-.6-.45-1.13-.47-1.59-.02-.46.07-.85.27-1.18.2-.33.49-.58.87-.77.22-.11.44-.18.65-.23.21-.04.42-.05.62-.01.2.03.39.11.57.22l.07-.03-1.21-2.47.98-.48,3.35,6.85-.8.39-.43-.64-.07.03c-.03.35-.15.65-.36.91-.2.26-.47.47-.79.63ZM70.74,92.2c.29-.14.49-.32.61-.54.12-.22.16-.47.12-.77-.03-.29-.14-.62-.32-.98l-.06-.13c-.15-.3-.3-.55-.47-.73-.16-.19-.33-.32-.5-.4-.17-.08-.35-.12-.53-.11-.18.01-.37.06-.56.16-.29.14-.5.32-.62.52-.13.21-.17.45-.14.74.04.29.15.63.34,1.02l.08.17c.19.39.39.69.6.89.21.2.43.31.66.34.24.03.5-.03.78-.17Z"/>
      </g>
      <g>
        <path class="cls-3" d="M35.35,74.17v-.12c0-1.46.66-2.65,2.48-3.98,1.19-.87,1.55-1.17,1.55-1.9s-.35-1.14-1.06-1.14c-.82,0-1.12.5-1.24,1.24h-1.77c.12-1.45,1.07-2.66,3-2.66,2.16,0,2.9,1.29,2.9,2.55s-.53,1.82-2.07,2.9c-1.04.73-1.45,1.21-1.6,1.59h3.98l-.23,1.53h-5.95Z"/>
        <path class="cls-3" d="M48.16,65.76v1.36c-1.33,1.89-2.64,4.61-2.97,7.05h-1.88c.33-2.47,1.84-5.44,2.98-6.9h-3.96v-1.5h5.82Z"/>
        <path class="cls-3" d="M55.59,69.91c0,2.31-.73,4.41-3.23,4.41s-3.23-2.03-3.23-4.36.85-4.36,3.27-4.36,3.19,1.92,3.19,4.3ZM51.02,69.95c0,1.55.18,2.92,1.37,2.92s1.31-1.29,1.31-2.94-.2-2.86-1.3-2.86-1.38,1.06-1.38,2.88Z"/>
        <path class="cls-3" d="M63.26,69.91c0,2.31-.73,4.41-3.23,4.41s-3.23-2.03-3.23-4.36.85-4.36,3.27-4.36,3.19,1.92,3.19,4.3ZM58.69,69.95c0,1.55.18,2.92,1.37,2.92s1.31-1.29,1.31-2.94-.2-2.86-1.3-2.86-1.38,1.06-1.38,2.88Z"/>
        <path class="cls-3" d="M65.98,74.17v-6.29c-.39.18-1.1.33-1.52.37v-1.37c.8-.15,1.6-.6,2.08-1.13h1.29v8.41h-1.86Z"/>
      </g>
      <polygon class="cls-3" points="31.97 36.28 31.97 39.22 34.7 39.22 34.7 48.33 31.97 48.33 31.97 51.31 40.97 51.31 40.97 48.33 38.1 48.33 38.1 39.22 40.97 39.22 40.97 36.28 31.97 36.28"/>
      <path class="cls-3" d="M52.35,36.28h3.26v4.96h-3.26s-.78-2.37-3.22-2.66-3.15.85-2.91,1.7.96,1.28,4.15,1.59,6.24,2.41,5.53,5.78-5.92,5.99-10.45,2.06v1.59h-3.3v-5.24h3.15s1.42,2.91,4.57,2.69,3.17-3.01,1.13-3.37-7.61-.07-8.6-4.22,4.96-7.12,10.03-3.37l-.07-1.52Z"/>
      <path class="cls-3" d="M72.38,43.56c-.04-1.58-.52-3.12-1.43-4.41-2.47-3.45-6.54-3.23-6.54-3.23-4.1-.35-8.8,3.69-8.09,8.89.71,5.21,4.39,6.49,7.34,6.86,2.94.38,5.6-.69,7.48-3.12,1.11-1.43,1.29-3.52,1.25-5ZM67.93,45.18c0,.67-.18,1.34-.56,1.89-.46.67-1.28,1.34-2.76,1.49,0,0-3.31.1-3.7-3.1-.01-.12-.02-.23-.02-.35v-2.78c0-.64.17-1.27.52-1.8.47-.69,1.34-1.41,2.96-1.47,0,0,2.87-.07,3.5,3.12.04.21.06.43.06.65v2.34Z"/>
      <g class="cls-1">
        <g>
          <path class="cls-3" d="M65.03,34.95c-.04-.07-4.41-6.95-12.58-7.16-.07,0-.15,0-.22,0-9.79,0-13.9,6.9-13.94,6.97l-.52-.3c.04-.08,1.1-1.88,3.45-3.69,2.16-1.67,5.86-3.63,11.24-3.58,4.45.11,7.77,2.13,9.77,3.8,2.17,1.81,3.27,3.57,3.31,3.64l-.51.32Z"/>
          <path class="cls-3" d="M42.08,34.95l-.51-.32c.12-.19,2.97-4.76,6.24-5.88l.2.57c-3.06,1.06-5.89,5.59-5.92,5.63Z"/>
          <path class="cls-3" d="M46.65,34.85l-.59-.12c.61-2.93,3.07-5.3,3.17-5.4l.42.44s-2.42,2.35-3,5.09Z"/>
          <rect class="cls-3" x="51.22" y="29.62" width=".6" height="5.1"/>
          <path class="cls-3" d="M56.45,34.86c-.68-2.91-3.28-5.17-3.3-5.19l.39-.46c.11.1,2.78,2.41,3.5,5.51l-.59.14Z"/>
          <path class="cls-3" d="M61.01,34.93c-2.05-4.04-5.84-5.69-5.87-5.71l.24-.55c.16.07,4.02,1.76,6.17,5.99l-.54.27Z"/>
          <path class="cls-3" d="M51.58,33.85s-.04,0-.05,0c-7.49-.14-9.84-2.84-9.94-2.95l.46-.39s2.31,2.6,9.48,2.74c.02,0,.03,0,.05,0,5.58,0,9.59-2.76,9.63-2.79l.35.49c-.17.12-4.2,2.9-9.98,2.9Z"/>
          <path class="cls-3" d="M51.08,29.93c-3.02,0-4.58-1.33-4.65-1.39l.39-.46s1.63,1.37,4.69,1.23c2.19-.1,3.85-.55,4.94-1.36l.36.48c-.44.33-1.79,1.33-5.27,1.48-.16,0-.31.01-.46.01Z"/>
        </g>
      </g>
      <g class="cls-4">
        <g>
          <path class="cls-3" d="M65.03,52.14c-.04.07-4.41,6.95-12.58,7.16-.07,0-.15,0-.22,0-9.79,0-13.9-6.9-13.94-6.97l-.52.3c.04.08,1.1,1.88,3.45,3.69,2.16,1.67,5.86,3.63,11.24,3.58,4.45-.11,7.77-2.13,9.77-3.8,2.17-1.81,3.27-3.57,3.31-3.64l-.51-.32Z"/>
          <path class="cls-3" d="M42.08,52.15l-.51.32c.12.19,2.97,4.76,6.24,5.88l.2-.57c-3.06-1.06-5.89-5.59-5.92-5.63Z"/>
          <path class="cls-3" d="M46.65,52.24l-.59.12c.61,2.93,3.07,5.3,3.17,5.4l.42-.44s-2.42-2.35-3-5.09Z"/>
          <rect class="cls-3" x="51.22" y="52.37" width=".6" height="5.1"/>
          <path class="cls-3" d="M56.45,52.24c-.68,2.91-3.28,5.17-3.3,5.19l.39.46c.11-.1,2.78-2.41,3.5-5.51l-.59-.14Z"/>
          <path class="cls-3" d="M61.01,52.17c-2.05,4.04-5.84,5.69-5.87,5.71l.24.55c.16-.07,4.02-1.76,6.17-5.99l-.54-.27Z"/>
          <path class="cls-3" d="M51.58,53.24s-.04,0-.05,0c-7.49.14-9.84,2.84-9.94,2.95l.46.39s2.31-2.6,9.48-2.74c.02,0,.03,0,.05,0,5.58,0,9.59,2.76,9.63,2.79l.35-.49c-.17-.12-4.2-2.9-9.98-2.9Z"/>
          <path class="cls-3" d="M51.08,57.17c-3.02,0-4.58,1.33-4.65,1.39l.39.46s1.63-1.37,4.69-1.23c2.19.1,3.85.55,4.94,1.36l.36-.48c-.44-.33-1.79-1.33-5.27-1.48-.16,0-.31-.01-.46-.01Z"/>
        </g>
      </g>
    </g>
  </g>
</svg>