<svg xmlns="http://www.w3.org/2000/svg" xmlns:xlink="http://www.w3.org/1999/xlink" width="35" height="35" viewBox="0 0 35 35"><defs><clipPath id="a"><rect width="35" height="35" transform="translate(380 345)" fill="none" stroke="#707070" stroke-width="1"/></clipPath><clipPath id="b"><rect width="32" height="32" fill="none"/></clipPath></defs><g transform="translate(-380 -345)" clip-path="url(#a)"><g transform="translate(381.31 347.31)"><g transform="translate(-0.31 -0.31)" clip-path="url(#b)"><path d="M29.121,2.893H25.939V2.121A2.124,2.124,0,0,0,23.817,0H7.425A2.124,2.124,0,0,0,5.3,2.121v.771H2.121A2.124,2.124,0,0,0,0,5.014V8.871a5.5,5.5,0,0,0,5.368,5.495,10.316,10.316,0,0,0,8.613,9.02V27H10.8a2.124,2.124,0,0,0-2.121,2.121v1.446a.676.676,0,0,0,.675.675H21.889a.676.676,0,0,0,.675-.675V29.121A2.124,2.124,0,0,0,20.442,27H17.26V23.386a10.313,10.313,0,0,0,8.611-9.02,5.5,5.5,0,0,0,5.371-5.495V5.014a2.124,2.124,0,0,0-2.121-2.121m.193,5.978V5.5a.676.676,0,0,0-.675-.675h-2.7V4.243h3.182a.772.772,0,0,1,.771.771V8.871a4.151,4.151,0,0,1-3.953,4.142v-.579a3.572,3.572,0,0,0,3.375-3.563m-1.35,0a2.221,2.221,0,0,1-2.025,2.21V6.171h2.025ZM10.8,28.349h9.643a.772.772,0,0,1,.771.771v.771H10.028v-.771a.772.772,0,0,1,.771-.771m4.532-4.834c.094.006.19.012.289.012s.2-.006.289-.012V27h-.579ZM24.589,2.121V13.21a8.968,8.968,0,0,1-17.935,0V2.121a.772.772,0,0,1,.771-.771H23.817a.772.772,0,0,1,.771.771M1.929,5.5V8.871A3.572,3.572,0,0,0,5.3,12.434v.579A4.151,4.151,0,0,1,1.35,8.871V5.014a.772.772,0,0,1,.771-.771H5.3v.579H2.6a.676.676,0,0,0-.675.675m1.35,3.375v-2.7H5.3v4.909a2.221,2.221,0,0,1-2.025-2.21" transform="translate(0.329 0.329)" fill="#fff"/><path d="M307.5,177.635l-1.976-.3-.89-1.895a.675.675,0,0,0-1.222,0l-.89,1.895-1.977.3a.675.675,0,0,0-.381,1.138l1.449,1.486-.343,2.1a.676.676,0,0,0,.993.7l1.759-.972,1.76.973a.687.687,0,0,0,.326.083.669.669,0,0,0,.389-.124.68.68,0,0,0,.277-.66l-.344-2.1,1.449-1.486a.675.675,0,0,0-.38-1.138m-2.456,2.505.175,1.068-.869-.48a.686.686,0,0,0-.653,0l-.868.48L303,180.14a.678.678,0,0,0-.183-.58l-.77-.789,1.033-.158a.674.674,0,0,0,.509-.38l.431-.919.431.919a.671.671,0,0,0,.509.38l1.033.158-.771.789h0a.678.678,0,0,0-.183.58" transform="translate(-288.073 -167.969)" fill="#fff"/></g></g></g></svg>